<?xml version="1.0" encoding="utf-8"?>
<!-- Generator: Adobe Illustrator 21.1.0, SVG Export Plug-In . SVG Version: 6.00 Build 0)  -->
<svg version="1.1" id="Calque_1" xmlns="http://www.w3.org/2000/svg" xmlns:xlink="http://www.w3.org/1999/xlink" x="0px" y="0px"
	 viewBox="0 0 1417.3 1417.3" style="enable-background:new 0 0 1417.3 1417.3;" xml:space="preserve">
<style type="text/css">
	.st0{fill:#E6214B;}
</style>
<g id="Users_2_x40_2x.png_2_">
	<g>
		<path class="st0" d="M225,959.7c37.8-10.4,102.9-53.2,102.9-150.1c0-86.7-28.2-124.9-43.4-145.4l-1.9-2.6
			c-0.2-0.2-0.3-0.5-0.5-0.7c-1.2-3.6-4.8-18.4,2.9-50c3-12.3,1.2-26.4-4-37.9c-11.4-25-32.6-71.5-17.7-106.4
			c24.7-60,35.1-64.5,62.8-76.6c2.7-1.2,5.3-2.6,7.7-4.1c6.9-4.4,35.3-15,64.4-15c14,0,25.6,2.6,35,7.3c2.4-9.7,5.3-19.4,9.4-29.1
			c3.4-8.6,7-15.9,10.6-23.6c-17.5-7.6-36.4-10.8-55-10.8c-40.7,0-79.3,14-94.7,23.8c-45,19.6-63.9,37.8-92.3,106.7
			c-24.6,57.9,4.7,120.8,19.1,152.4c-17.6,72.3,6.8,97.1,6.8,97.1c12.8,17.5,34.5,42.8,34.5,114.8c0,81.9-63.1,96.2-63.1,96.2
			c-51.2,17.9-119.4,56-119.4,168.5c0,0,0,28.1,28.1,28.1l125.5,0c6.7-20.9,15.6-39.7,26.4-56.3l-121.7,0
			C155.9,992.7,189.1,972.5,225,959.7z M1207.6,905.8c0,0-63.1-14.3-63.1-96.2c0-72,21.7-97.3,34.5-114.8c0,0,24.5-24.9,6.8-97.1
			c14.4-31.6,43.8-94.5,19.1-152.4c-28.4-69-47.3-87.1-92.3-106.7c-15.4-9.8-54-23.8-94.7-23.8c-19.2,0-38.8,3.4-56.7,11.6
			c7.2,18.2,13.2,36.2,17.6,54c0.7-0.4,1.5-1,2.2-1.4c9.6-5.3,22.1-8,37-8c29.1,0,57.5,10.6,64.4,15c2.5,1.6,5.1,3,7.7,4.1
			c27.7,12.1,38.1,16.6,62.8,76.6c14.9,35-6.3,81.5-17.7,106.4c-5.2,11.5-7,25.6-4,37.9c7.7,31.6,4.1,46.3,2.9,50
			c-0.2,0.2-0.3,0.4-0.5,0.7l-1.9,2.6c-15.2,20.5-43.4,58.7-43.4,145.4c0,96.9,65.1,139.7,102.9,150.1c35.9,12.9,69.1,33,77.5,86.5
			l-121.7,0c10.8,16.5,19.7,35.4,26.4,56.3l125.5,0c28.1,0,28.1-28.1,28.1-28.1C1327,961.8,1258.8,923.7,1207.6,905.8z M932.4,967.8
			c0,0-100.8-24-100.8-129.4c0-92.5,41.4-125.1,57.4-147.6c0,0,32.9-28.8,10.9-121.7c36.7-50.9,48.6-133.8,3.7-236.2
			c-25.1-59.8-47.1-92.6-80.8-111.6c-24.7-14-52.8-19.2-80.1-19.2c-50.9,0-99.1,18-118.3,30.6C568.1,258,530.2,281.3,494.7,370
			c-30.8,74.5,5.9,155.3,23.9,196c-22,92.9,8.5,124.9,8.5,124.9c16,22.5,57.4,55.1,57.4,147.6c0,105.3-100.8,129.4-100.8,129.4
			c-64,23.1-197.7,67.2-197.7,219.1c0,0,0,28.1,28.1,28.1H1102c28.1,0,28.1-28.1,28.1-28.1C1130.1,1035,996.5,990.9,932.4,967.8z
			 M344.6,1158.8c13.1-79.2,82.5-110.9,153.4-136.3l2.2-0.8c50.6-13.5,140.6-67.4,140.6-183.3c0-98.3-39.8-146.2-61.2-172
			c-4.3-5.2-9.4-11.9-8.2-10.4c-1.8-3.8-10.2-25.8,2-77.2c5.7-24-4-37.2-4-37.2c-15.4-34.6-43.9-98.9-22.5-150.8
			c28.8-71.9,54.2-86.1,100.4-106.8c2.7-1.2,5.3-2.6,7.8-4.2c8.7-5.7,45.7-21.4,87.5-21.4c20.9,0,38.5,4,52.4,11.9
			c16.7,9.5,32.8,27.4,57,85.2c45.2,103.1,16.6,160.7,2.1,180.7c-9.5,13.2-12.9,30-9.1,45.9c11.2,47.2,3.9,67.1,2.1,71.1
			c-0.5,0.6-7.2,9.1-10.6,13.3c-21.4,25.8-61.2,73.7-61.2,172c0,115.8,90,169.8,140.6,183.3l2.2,0.8
			c70.9,25.4,140.3,57.1,153.4,136.3H344.6z"/>
	</g>
</g>
</svg>
